<?xml version="1.0" encoding="UTF-8" standalone="no"?>
<!-- Generator: Adobe Illustrator 12.0.0, SVG Export Plug-In . SVG Version: 6.00 Build 51448)  -->

<svg
   xmlns:ns0="http://ns.adobe.com/SaveForWeb/1.0/"
   xmlns:ns="http://ns.adobe.com/Variables/1.0/"
   xmlns:i="http://ns.adobe.com/AdobeIllustrator/10.0/"
   xmlns:dc="http://purl.org/dc/elements/1.1/"
   xmlns:cc="http://creativecommons.org/ns#"
   xmlns:rdf="http://www.w3.org/1999/02/22-rdf-syntax-ns#"
   xmlns:svg="http://www.w3.org/2000/svg"
   xmlns="http://www.w3.org/2000/svg"
   xmlns:xlink="http://www.w3.org/1999/xlink"
   xmlns:sodipodi="http://sodipodi.sourceforge.net/DTD/sodipodi-0.dtd"
   xmlns:inkscape="http://www.inkscape.org/namespaces/inkscape"
   version="1.0"
   i:viewOrigin="25.3228 464.3589"
   i:rulerOrigin="18 -288"
   i:pageBounds="-18 504 630 288"
   width="399.00409"
   height="432.22571"
   viewBox="0 0 743.93063 246.13263"
   overflow="visible"
   enable-background="new 0 0 563.625 157.656"
   xml:space="preserve"
   id="svg2"
   sodipodi:version="0.32"
   inkscape:version="0.48.0 r9654"
   sodipodi:docname="projectlogo.svg"
   inkscape:output_extension="org.inkscape.output.svg.inkscape"
   inkscape:export-filename="/home/hartmut/projekte/software/openoffice/openoffice-python.png"
   inkscape:export-xdpi="32.508026"
   inkscape:export-ydpi="32.508026"
   style="overflow:visible"><title
   id="title4399">python-ghostsctipt project logo</title><defs
   id="defs45"><linearGradient
   inkscape:collect="always"
   id="linearGradient4371"><stop
     style="stop-color:#ffffff;stop-opacity:1;"
     offset="0"
     id="stop4373" /><stop
     style="stop-color:#ffffff;stop-opacity:0;"
     offset="1"
     id="stop4375" /></linearGradient><linearGradient
   id="linearGradient4365"><stop
     style="stop-color:#d1e5f3;stop-opacity:1;"
     offset="0"
     id="stop4367" /><stop
     style="stop-color:#5293c8;stop-opacity:1;"
     offset="1"
     id="stop4369" /></linearGradient><linearGradient
   inkscape:collect="always"
   id="linearGradient4357"><stop
     style="stop-color:#000000;stop-opacity:1;"
     offset="0"
     id="stop4359" /><stop
     style="stop-color:#000000;stop-opacity:0;"
     offset="1"
     id="stop4361" /></linearGradient><linearGradient
   id="linearGradient4343"><stop
     style="stop-color:#000000;stop-opacity:0.24782608;"
     offset="0"
     id="stop4345" /><stop
     style="stop-color:#000000;stop-opacity:0;"
     offset="1"
     id="stop4347" /></linearGradient><inkscape:perspective
   sodipodi:type="inkscape:persp3d"
   inkscape:vp_x="0 : 138.42735 : 1"
   inkscape:vp_y="0 : 1000 : 0"
   inkscape:vp_z="302.29791 : 138.42735 : 1"
   inkscape:persp3d-origin="151.14896 : 92.284902 : 1"
   id="perspective2867" />
		
		
		
		
		
		
		
		
		
		
		
		
		
		
		
		
		
	<radialGradient
   gradientUnits="userSpaceOnUse"
   gradientTransform="matrix(1,0,0,0.177966,0,108.7434)"
   r="29.036913"
   fy="132.28575"
   fx="61.518883"
   cy="132.28575"
   cx="61.518883"
   id="radialGradient2801"
   xlink:href="#linearGradient2795"
   inkscape:collect="always" /><linearGradient
   y2="76.313133"
   x2="26.670298"
   y1="76.176224"
   x1="172.94208"
   gradientTransform="matrix(0.562541,0,0,0.567972,-11.5974,-7.60954)"
   gradientUnits="userSpaceOnUse"
   id="linearGradient2258"
   xlink:href="#linearGradient4689"
   inkscape:collect="always" /><linearGradient
   y2="144.75717"
   x2="-65.308502"
   y1="144.75717"
   x1="224.23996"
   gradientTransform="matrix(0.562541,0,0,0.567972,-11.5974,-7.60954)"
   gradientUnits="userSpaceOnUse"
   id="linearGradient2255"
   xlink:href="#linearGradient4671"
   inkscape:collect="always" /><linearGradient
   y2="144.75717"
   x2="-65.308502"
   y1="144.75717"
   x1="224.23996"
   gradientTransform="translate(100.2702,99.61116)"
   gradientUnits="userSpaceOnUse"
   id="linearGradient2250"
   xlink:href="#linearGradient4671"
   inkscape:collect="always" /><linearGradient
   y2="76.313133"
   x2="26.670298"
   y1="77.475983"
   x1="172.94208"
   gradientTransform="translate(100.2702,99.61116)"
   gradientUnits="userSpaceOnUse"
   id="linearGradient2248"
   xlink:href="#linearGradient4689"
   inkscape:collect="always" /><linearGradient
   y2="144.75717"
   x2="-65.308502"
   y1="144.75717"
   x1="224.23996"
   gradientTransform="translate(100.2702,99.61116)"
   gradientUnits="userSpaceOnUse"
   id="linearGradient2589"
   xlink:href="#linearGradient4671"
   inkscape:collect="always" /><linearGradient
   y2="76.313133"
   x2="26.670298"
   y1="77.475983"
   x1="172.94208"
   gradientTransform="translate(100.2702,99.61116)"
   gradientUnits="userSpaceOnUse"
   id="linearGradient2587"
   xlink:href="#linearGradient4689"
   inkscape:collect="always" /><linearGradient
   gradientTransform="translate(100.2702,99.61116)"
   gradientUnits="userSpaceOnUse"
   xlink:href="#linearGradient4689"
   id="linearGradient2990"
   y2="76.313133"
   x2="26.670298"
   y1="77.475983"
   x1="172.94208" /><linearGradient
   gradientTransform="translate(100.2702,99.61116)"
   gradientUnits="userSpaceOnUse"
   xlink:href="#linearGradient4671"
   id="linearGradient2987"
   y2="144.75717"
   x2="-65.308502"
   y1="144.75717"
   x1="224.23996" /><linearGradient
   id="linearGradient4689"><stop
     id="stop4691"
     offset="0"
     style="stop-color:#5a9fd4;stop-opacity:1;" /><stop
     id="stop4693"
     offset="1"
     style="stop-color:#306998;stop-opacity:1;" /></linearGradient><linearGradient
   id="linearGradient4671"><stop
     id="stop4673"
     offset="0"
     style="stop-color:#ffd43b;stop-opacity:1;" /><stop
     id="stop4675"
     offset="1"
     style="stop-color:#ffe873;stop-opacity:1" /></linearGradient><linearGradient
   id="linearGradient3236"><stop
     id="stop3244"
     offset="0"
     style="stop-color:#f4f4f4;stop-opacity:1" /><stop
     id="stop3240"
     offset="1"
     style="stop-color:white;stop-opacity:1" /></linearGradient><linearGradient
   id="linearGradient3676"><stop
     id="stop3678"
     offset="0"
     style="stop-color:#b2b2b2;stop-opacity:0.5;" /><stop
     id="stop3680"
     offset="1"
     style="stop-color:#b3b3b3;stop-opacity:0;" /></linearGradient><linearGradient
   id="linearGradient2787"><stop
     id="stop2789"
     offset="0"
     style="stop-color:#7f7f7f;stop-opacity:0.5;" /><stop
     id="stop2791"
     offset="1"
     style="stop-color:#7f7f7f;stop-opacity:0;" /></linearGradient><linearGradient
   id="linearGradient2795"><stop
     id="stop2797"
     offset="0"
     style="stop-color:#b8b8b8;stop-opacity:0.49803922;" /><stop
     id="stop2799"
     offset="1"
     style="stop-color:#7f7f7f;stop-opacity:0;" /></linearGradient><linearGradient
   inkscape:collect="always"
   xlink:href="#linearGradient4689"
   id="linearGradient21828"
   gradientUnits="userSpaceOnUse"
   gradientTransform="matrix(0.562541,0,0,0.567972,-9.399749,-5.305317)"
   x1="26.648937"
   y1="20.603781"
   x2="135.66525"
   y2="114.39767" /><linearGradient
   inkscape:collect="always"
   xlink:href="#linearGradient4671"
   id="linearGradient21830"
   gradientUnits="userSpaceOnUse"
   gradientTransform="matrix(0.562541,0,0,0.567972,-9.399749,-5.305317)"
   x1="150.96111"
   y1="192.35176"
   x2="112.03144"
   y2="137.27299" /><radialGradient
   inkscape:collect="always"
   xlink:href="#linearGradient2795"
   id="radialGradient21832"
   gradientUnits="userSpaceOnUse"
   gradientTransform="matrix(2.382716e-8,-0.296405,1.43676,4.683673e-7,-128.544,150.5202)"
   cx="61.518883"
   cy="132.28575"
   fx="61.518883"
   fy="132.28575"
   r="29.036913" />
	
<linearGradient
   inkscape:collect="always"
   xlink:href="#linearGradient4689"
   id="linearGradient21841"
   gradientUnits="userSpaceOnUse"
   gradientTransform="matrix(0.562541,0,0,0.567972,-9.399749,-5.305317)"
   x1="26.648937"
   y1="20.603781"
   x2="135.66525"
   y2="114.39767" /><linearGradient
   inkscape:collect="always"
   xlink:href="#linearGradient4671"
   id="linearGradient21843"
   gradientUnits="userSpaceOnUse"
   gradientTransform="matrix(0.562541,0,0,0.567972,-9.399749,-5.305317)"
   x1="150.96111"
   y1="192.35176"
   x2="112.03144"
   y2="137.27299" /><radialGradient
   inkscape:collect="always"
   xlink:href="#linearGradient2795"
   id="radialGradient21845"
   gradientUnits="userSpaceOnUse"
   gradientTransform="matrix(2.382716e-8,-0.296405,1.43676,4.683673e-7,-128.544,150.5202)"
   cx="61.518883"
   cy="132.28575"
   fx="61.518883"
   fy="132.28575"
   r="29.036913" /><linearGradient
   inkscape:collect="always"
   xlink:href="#linearGradient4689"
   id="linearGradient21854"
   gradientUnits="userSpaceOnUse"
   gradientTransform="matrix(0.562541,0,0,0.567972,-9.399749,-5.305317)"
   x1="26.648937"
   y1="20.603781"
   x2="135.66525"
   y2="114.39767" /><linearGradient
   inkscape:collect="always"
   xlink:href="#linearGradient4671"
   id="linearGradient21856"
   gradientUnits="userSpaceOnUse"
   gradientTransform="matrix(0.562541,0,0,0.567972,-9.399749,-5.305317)"
   x1="150.96111"
   y1="192.35176"
   x2="112.03144"
   y2="137.27299" /><radialGradient
   inkscape:collect="always"
   xlink:href="#linearGradient2795"
   id="radialGradient21858"
   gradientUnits="userSpaceOnUse"
   gradientTransform="matrix(2.382716e-8,-0.296405,1.43676,4.683673e-7,-128.544,150.5202)"
   cx="61.518883"
   cy="132.28575"
   fx="61.518883"
   fy="132.28575"
   r="29.036913" /><linearGradient
   inkscape:collect="always"
   xlink:href="#linearGradient4689"
   id="linearGradient21866"
   gradientUnits="userSpaceOnUse"
   gradientTransform="matrix(0.562541,0,0,0.567972,-9.399749,-5.305317)"
   x1="26.648937"
   y1="20.603781"
   x2="135.66525"
   y2="114.39767" /><linearGradient
   inkscape:collect="always"
   xlink:href="#linearGradient4671"
   id="linearGradient21868"
   gradientUnits="userSpaceOnUse"
   gradientTransform="matrix(0.562541,0,0,0.567972,-9.399749,-5.305317)"
   x1="150.96111"
   y1="192.35176"
   x2="112.03144"
   y2="137.27299" /><radialGradient
   inkscape:collect="always"
   xlink:href="#linearGradient2795"
   id="radialGradient21870"
   gradientUnits="userSpaceOnUse"
   gradientTransform="matrix(2.382716e-8,-0.296405,1.43676,4.683673e-7,-128.544,150.5202)"
   cx="61.518883"
   cy="132.28575"
   fx="61.518883"
   fy="132.28575"
   r="29.036913" /><inkscape:perspective
   id="perspective3777"
   inkscape:persp3d-origin="0.5 : 0.33333333 : 1"
   inkscape:vp_z="1 : 0.5 : 1"
   inkscape:vp_y="0 : 1000 : 0"
   inkscape:vp_x="0 : 0.5 : 1"
   sodipodi:type="inkscape:persp3d" /><linearGradient
   gradientTransform="matrix(1.8644687,0,0,2.1669228,375.41078,-1367.8921)"
   inkscape:collect="always"
   xlink:href="#linearGradient4365"
   id="linearGradient3729"
   x1="155.61662"
   y1="604.44196"
   x2="534.96857"
   y2="604.44196"
   gradientUnits="userSpaceOnUse" /><linearGradient
   inkscape:collect="always"
   xlink:href="#linearGradient4343"
   id="linearGradient4349"
   x1="1198.5536"
   y1="-59.301956"
   x2="1346.9504"
   y2="-59.301956"
   gradientUnits="userSpaceOnUse" /><linearGradient
   inkscape:collect="always"
   xlink:href="#linearGradient4343"
   id="linearGradient4351"
   x1="757.35968"
   y1="100.34522"
   x2="843.77295"
   y2="100.34522"
   gradientUnits="userSpaceOnUse" /><linearGradient
   inkscape:collect="always"
   xlink:href="#linearGradient4343"
   id="linearGradient4353"
   x1="925.45325"
   y1="129.31284"
   x2="1018.8779"
   y2="129.31284"
   gradientUnits="userSpaceOnUse" /><linearGradient
   inkscape:collect="always"
   xlink:href="#linearGradient4343"
   id="linearGradient4355"
   x1="1135.6637"
   y1="123.03434"
   x2="1235.4824"
   y2="123.03434"
   gradientUnits="userSpaceOnUse" /><linearGradient
   inkscape:collect="always"
   xlink:href="#linearGradient4357"
   id="linearGradient4363"
   x1="694.42834"
   y1="189.51959"
   x2="1409.2137"
   y2="189.51959"
   gradientUnits="userSpaceOnUse" /><linearGradient
   inkscape:collect="always"
   xlink:href="#linearGradient4371"
   id="linearGradient4377"
   x1="774.84204"
   y1="-288.31171"
   x2="975.64136"
   y2="-288.31171"
   gradientUnits="userSpaceOnUse" /><linearGradient
   inkscape:collect="always"
   xlink:href="#linearGradient4671"
   id="linearGradient4391"
   x1="849.4519"
   y1="-173.71344"
   x2="1125.6263"
   y2="-173.71344"
   gradientUnits="userSpaceOnUse" /></defs><sodipodi:namedview
   inkscape:window-height="991"
   inkscape:window-width="1400"
   inkscape:pageshadow="2"
   inkscape:pageopacity="0.0"
   guidetolerance="10.0"
   gridtolerance="10.0"
   objecttolerance="10.0"
   borderopacity="1.0"
   bordercolor="#666666"
   pagecolor="#ffffff"
   id="base"
   inkscape:zoom="0.74517631"
   inkscape:cx="168.35516"
   inkscape:cy="266.49296"
   inkscape:window-x="-3"
   inkscape:window-y="-3"
   inkscape:current-layer="layer4"
   width="320px"
   height="285px"
   showgrid="false"
   inkscape:window-maximized="1" />
<metadata
   id="metadata4">
	<ns:variableSets>
		<ns:variableSet
   locked="none"
   varSetName="binding1">
			<ns:variables />
			<ns:sampleDataSets>
				</ns:sampleDataSets>
		</ns:variableSet>
	</ns:variableSets>
	<ns0:sfw>
		<ns0:slices />
		<ns0:sliceSourceBounds
   y="306.703"
   x="25.323"
   width="563.625"
   height="157.656"
   bottomLeftOrigin="true" />
	</ns0:sfw>
<rdf:RDF><cc:Work
     rdf:about=""><dc:format>image/svg+xml</dc:format><dc:type
       rdf:resource="http://purl.org/dc/dcmitype/StillImage" /><dc:title>python-ghostsctipt project logo</dc:title><dc:contributor><cc:Agent><dc:title>lemmling, see http://www.openclipart.org/detail/17847</dc:title></cc:Agent></dc:contributor><cc:license
       rdf:resource="http://creativecommons.org/licenses/publicdomain/" /><dc:date>2010-08-12</dc:date><dc:creator><cc:Agent><dc:title /></cc:Agent></dc:creator></cc:Work><cc:License
     rdf:about="http://creativecommons.org/licenses/publicdomain/"><cc:permits
       rdf:resource="http://creativecommons.org/ns#Reproduction" /><cc:permits
       rdf:resource="http://creativecommons.org/ns#Distribution" /><cc:permits
       rdf:resource="http://creativecommons.org/ns#DerivativeWorks" /></cc:License></rdf:RDF></metadata>

<g
   inkscape:groupmode="layer"
   id="layer4"
   inkscape:label="base"
   transform="translate(-665.28308,141.38556)"><path
     d="m 698.72994,259.88947 c 26.73336,27.23417 77.57,7.42845 119.46311,21.93497 33.96892,11.7626 50.13373,88.55164 89.64428,74.60821 39.51056,-13.94341 106.49577,-50.13116 150.95287,-37.8417 44.457,12.28942 99.8444,95.61439 135.6407,54.91977 30.4022,-34.56231 44.9417,-120.70916 120.982,-112.0297 76.2729,8.70601 92.7303,2.8796 82.4935,-91.19708 C 1391.9681,115.711 1439.2968,70.388899 1375.2639,28.015546 1275.414,-38.059473 1116.6083,3.0451825 1020.392,67.683549 910.21744,141.69918 658.55362,218.96056 698.72994,259.88947 z"
     id="path3282"
     style="fill:url(#linearGradient4363);fill-opacity:1;fill-rule:evenodd;stroke:none" /><path
     d="m 1302.6522,-85.361603 c 0,164.390332 66.7318,206.768873 66.7318,283.011513 0,42.28742 -65.9994,-52.165 -103.0281,-30.78641 -34.3437,19.82838 -76.6493,38.55917 -119.5943,9.02582 -25.5747,-17.58776 10.0873,-46.21667 -39.3585,-46.21667 -39.4406,0 -99.5498,28.37809 -137.15674,34.49155 -34.18901,5.55785 -70.6849,-30.74293 -131.00346,-10.05296 -37.5113,12.86681 -170.23088,104.6057 -170.23088,62.31827 0,-53.85568 62.03691,-112.52485 62.03691,-301.791113 0,-183.354717 128.03913,-332.164347 285.80157,-332.164347 157.7625,0 285.8017,148.80963 285.8017,332.164347 z"
     id="path2399"
     style="fill:#dbdbe3;fill-opacity:0.62745098;fill-rule:nonzero;stroke:none" /><path
     d="m 1302.6522,-85.361603 c 0,164.390332 66.7318,206.768873 66.7318,283.011513 0,42.28742 -91.1423,11.43719 -128.171,32.81577 -34.3437,19.82838 -20.2747,49.69698 -69.7221,68.86025 -35.5261,13.76806 -82.8939,-49.00202 -132.3396,-49.00202 -39.44063,0 -112.23523,52.90685 -146.42425,36.09104 -34.18901,-16.81583 -30.94618,-72.83743 -83.80686,-78.25007 -39.45041,-4.03951 -139.90817,50.55206 -139.90817,8.26463 0,-53.85568 62.03691,-112.52485 62.03691,-301.791113 0,-183.354717 128.03913,-332.164347 285.80157,-332.164347 157.7625,0 285.8017,148.80963 285.8017,332.164347 z"
     id="path2383"
     style="fill:url(#linearGradient3729);fill-opacity:1.0;fill-rule:nonzero;stroke:#000000;stroke-width:7.45787906999999972;stroke-linecap:round;stroke-linejoin:round;stroke-miterlimit:4;stroke-opacity:1" /><path
     d="m 922.63486,-253.51526 c -38.33928,3e-5 -69.454,35.75003 -69.454,79.80182 4e-5,44.05176 31.11472,79.801812 69.454,79.801812 29.62322,1.9e-5 54.92698,-21.367912 64.90428,-51.392942 9.97731,30.02503 35.28106,51.392961 64.90426,51.392942 38.3393,0 69.454,-35.750052 69.454,-79.801812 0,-44.05179 -31.1147,-79.80179 -69.454,-79.80182 -29.6174,0 -54.92288,21.30588 -64.90426,51.32157 -9.98138,-30.01569 -35.28688,-51.32157 -64.90428,-51.32157 z"
     id="path2387"
     style="fill:url(#linearGradient4391);fill-opacity:1;fill-rule:nonzero;stroke:#000000;stroke-width:7.45787477;stroke-linecap:round;stroke-linejoin:round;stroke-miterlimit:4;stroke-opacity:1;stroke-dasharray:none" /><path
     d="m 1066.043,-159.9865 a 30.073474,30.196083 0 0 1 -60.1469,0 30.073474,30.196083 0 1 1 60.1469,0 z"
     id="path2389"
     style="fill:#000000;fill-opacity:1;fill-rule:nonzero;stroke:none" /><path
     d="m 970.60644,-159.9865 a 30.073474,30.196083 0 0 1 -60.14694,0 30.073474,30.196083 0 1 1 60.14694,0 z"
     id="path2396"
     style="fill:#000000;fill-opacity:1;fill-rule:nonzero;stroke:none" /><path
     d="m 1203.3525,-304.45055 c 11.0049,-3.87803 66.3713,69.36677 76.4659,146.34001 6.8658,52.35273 3.9551,133.156232 11.8654,179.299464 7.9103,46.143255 76.2857,165.920006 48.78,164.797316 -64.6005,-2.63675 -105.8121,-106.553311 -91.0618,-255.180513 16.6346,-167.614437 -72.0153,-226.106267 -46.0495,-235.256277 z"
     id="path2398"
     style="fill:url(#linearGradient4349);fill-opacity:1;fill-rule:evenodd;stroke:none" /><path
     d="m 1229.72,216.30895 c -14.9505,14.64628 -42.1881,84.37622 -56.6903,52.73514 -14.5021,-31.6411 -2.399,-87.98594 -13.1838,-171.389221 -8.2029,-63.437242 -38.3841,-139.136817 -16.1792,-127.601609 22.1275,11.494953 38.2085,46.146626 58.3674,106.507569 17.6244,52.771961 45.5975,122.200931 27.6859,139.748121 z"
     id="path3170"
     style="fill:url(#linearGradient4355);fill-opacity:1;fill-rule:evenodd;stroke:none" /><path
     d="m 1014.813,233.80658 c -14.3023,15.27986 -49.30293,33.4745 -67.01113,30.03025 C 924.47499,259.29974 920.88267,181.07599 930.24935,130.2282 939.478,80.129829 957.25903,7.0951255 972.11758,-3.8602505 990.18799,-17.183762 973.42651,46.057301 990.37613,132.9975 c 12.96957,66.52545 38.39337,85.89864 24.43687,100.80908 z"
     id="path3172"
     style="fill:url(#linearGradient4353);fill-opacity:1;fill-rule:evenodd;stroke:none" /><path
     d="m 823.65946,191.25978 c -20.70992,-3.02143 -40.30043,2.12586 -56.69027,6.59188 -22.92804,6.24759 -1.45641,-28.25494 29.00431,-88.33137 23.03691,-45.434731 28.44268,-92.261106 41.80199,-105.0018045 15.9135,-15.1766075 -4.45135,44.1834905 -8.23016,101.8464345 -3.50466,53.47947 9.38902,87.12334 -5.88587,84.89486 z"
     id="path3174"
     style="fill:url(#linearGradient4351);fill-opacity:1;fill-rule:evenodd;stroke:none" /><path
     d="m 780.15296,-216.1192 c 50.96837,-137.35543 149.07043,-166.19591 174.02597,-164.7973 37.89879,2.124 27.45202,57.09699 -46.14325,76.46595 -75.0095,19.74116 -154.69868,160.5981 -127.88272,88.33135 z"
     id="path3279"
     style="fill:url(#linearGradient4377);fill-opacity:1;fill-rule:evenodd;stroke:none" /></g><g
   id="Splash_Screen"
   i:layer="yes"
   i:dimmedPercent="3"
   i:rgbTrio="#4F00FFFF4F00"
   transform="translate(-725.41355,141.38556)">
</g>
</svg>